<svg xmlns="http://www.w3.org/2000/svg" viewBox="0 0 1559.2 174.1" preserveAspectRatio="xMinYMax meet"><style>.st0{fill:#FFFFFF;}</style><g id="Text"><g id="XMLID_28_"><path id="XMLID_29_" class="st0" d="M353.6 44.6h40.9V57h-26.1v13.1h22.2v12.3h-22.2v15h27.1v12.4h-41.9V44.6z"/><path id="XMLID_31_" class="st0" d="M421.8 113.7v14.5h-14.7v-68h12l1 4.9h.4c3.9-3.5 8.9-6.1 14.1-6.1 12 0 19.4 9.9 19.4 25.2 0 17-10.2 26.8-20.9 26.8-4.3 0-8.3-1.9-11.8-5.2l.5 7.9zm7.9-14.7c5.1 0 9.2-4.4 9.2-14.6 0-8.9-2.7-13.4-8.6-13.4-3 0-5.6 1.4-8.5 4.5v20.3c2.6 2.4 5.4 3.2 7.9 3.2z"/><path id="XMLID_34_" class="st0" d="M464.4 39.7h14.7v17.2l-.7 8.9c3.7-3.3 8.6-6.8 15.3-6.8 10.8 0 15.4 7.6 15.4 20v30.8h-14.7V80.9c0-7.2-1.9-9.4-6.1-9.4-3.7 0-6 1.7-9.2 4.8v33.5h-14.7V39.7z"/><path id="XMLID_36_" class="st0" d="M542 59c14.1 0 21.1 10.3 21.1 23.8 0 2.6-.3 5-.6 6.2h-29.7c1.3 7.5 6.3 10.8 12.9 10.8 3.7 0 7.1-1.1 10.7-3.3l4.9 8.9c-5.1 3.5-11.7 5.6-17.6 5.6-14.2 0-25.1-9.6-25.1-26 0-16.1 11.5-26 23.4-26zm8.6 20.9c0-5.7-2.4-9.7-8.3-9.7-4.6 0-8.6 3.1-9.6 9.7h17.9z"/><path id="XMLID_39_" class="st0" d="M573.3 60.2h12l1 6.4h.4c4.1-4.1 8.5-7.6 15-7.6 7 0 11.2 3 13.7 8.3 4.4-4.5 9-8.3 15.6-8.3 10.7 0 15.5 7.6 15.5 20v30.8h-14.7V80.9c0-7.2-1.9-9.4-6.1-9.4-2.5 0-5.3 1.6-8.5 4.8v33.5h-14.7V80.9c0-7.2-1.9-9.4-6.1-9.4-2.4 0-5.3 1.6-8.4 4.8v33.5h-14.7V60.2z"/><path id="XMLID_41_" class="st0" d="M679.5 59c14.1 0 21.1 10.3 21.1 23.8 0 2.6-.3 5-.6 6.2h-29.7c1.3 7.5 6.3 10.8 12.9 10.8 3.7 0 7.1-1.1 10.7-3.3l4.9 8.9c-5.1 3.5-11.7 5.6-17.6 5.6-14.2 0-25.1-9.6-25.1-26 0-16.1 11.5-26 23.4-26zm8.6 20.9c0-5.7-2.4-9.7-8.3-9.7-4.6 0-8.6 3.1-9.6 9.7h17.9z"/><path id="XMLID_44_" class="st0" d="M710.8 60.2h12l1 8.7h.4c3.6-6.7 9-9.9 14.1-9.9 2.8 0 4.5.4 5.9 1l-2.4 12.7c-1.8-.5-3.3-.8-5.4-.8-3.7 0-8.3 2.4-10.9 9.1v28.8h-14.7V60.2z"/><path id="XMLID_46_" class="st0" d="M773.8 77.9c-.3-4.4-2.5-7.2-7.8-7.2-4.2 0-8.4 1.7-13.2 4.5l-5.2-9.7c6.3-3.8 13.4-6.5 21.2-6.5 12.7 0 19.7 7.2 19.7 22.4v28.4h-12l-1.1-5.1h-.3c-4.2 3.7-8.9 6.3-14.5 6.3-9 0-14.7-6.6-14.7-15 0-10.4 8.3-16.1 27.9-18.1zm-8.2 21.7c3.4 0 5.6-1.6 8.2-4.2v-8.7c-10.5 1.4-13.9 4.4-13.9 8.2 0 3.2 2.2 4.7 5.7 4.7z"/><path id="XMLID_49_" class="st0" d="M801.1 39.7h14.7V95c0 3.1 1.4 4.1 2.6 4.1.6 0 1 0 1.8-.2l1.8 10.9c-1.6.7-4.1 1.2-7.4 1.2-10.1 0-13.5-6.6-13.5-16.6V39.7z"/><path id="XMLID_51_" class="st0" d="M851.6 44.6h40.9V57h-26.1v13.1h22.2v12.3h-22.2v15h27.1v12.4h-41.9V44.6z"/><path id="XMLID_53_" class="st0" d="M905.1 60.2h12l1 8.7h.4c3.6-6.7 9-9.9 14.1-9.9 2.8 0 4.5.4 5.9 1l-2.4 12.7c-1.8-.5-3.3-.8-5.4-.8-3.7 0-8.3 2.4-10.9 9.1v28.8h-14.7V60.2z"/><path id="XMLID_55_" class="st0" d="M964.4 59c14.1 0 21.1 10.3 21.1 23.8 0 2.6-.3 5-.6 6.2h-29.7c1.3 7.5 6.3 10.8 12.9 10.8 3.7 0 7.1-1.1 10.7-3.3l4.9 8.9c-5.1 3.5-11.7 5.6-17.6 5.6-14.2 0-25.1-9.6-25.1-26 0-16.1 11.5-26 23.4-26zm8.6 20.9c0-5.7-2.4-9.7-8.3-9.7-4.6 0-8.6 3.1-9.6 9.7H973z"/><path id="XMLID_58_" class="st0" d="M1018.6 59c6.1 0 11.2 2.3 14.5 5.7l-6.7 9.1c-2.4-2-4.6-2.9-6.9-2.9-7.1 0-11.6 5.5-11.6 14.1s4.7 14.1 11.1 14.1c3.6 0 6.5-1.7 8.9-3.6l5.9 9.3c-4.8 4.2-11.1 6.2-16.5 6.2-13.8 0-24.5-9.5-24.5-26s12.1-26 25.8-26z"/><path id="XMLID_60_" class="st0" d="M1044.4 71.7h-6.8V60.8l7.6-.6 1.7-13.2h12.2v13.2h11.9v11.5h-11.9v19.9c0 5.6 2.5 7.9 6.4 7.9 1.6 0 3.4-.5 4.7-1l2.3 10.7c-2.6.8-6.2 1.8-11 1.8-12.3 0-17.1-7.7-17.1-19.2V71.7z"/><path id="XMLID_62_" class="st0" d="M1079.5 45.2c0-4.5 3.6-7.6 8.5-7.6 5 0 8.5 3.1 8.5 7.6s-3.5 7.7-8.5 7.7c-4.9 0-8.5-3.2-8.5-7.7zm1.2 15h14.7v49.6h-14.7V60.2z"/><path id="XMLID_65_" class="st0" d="M1129.6 59c12.5 0 24.1 9.5 24.1 26s-11.6 26-24.1 26c-12.6 0-24.2-9.5-24.2-26s11.6-26 24.2-26zm0 40.1c6 0 9.1-5.5 9.1-14.1s-3.1-14.1-9.1-14.1c-6.1 0-9.1 5.5-9.1 14.1s3 14.1 9.1 14.1z"/><path id="XMLID_68_" class="st0" d="M1163.8 60.2h12l1 6.3h.4c4.2-4 9.2-7.5 15.9-7.5 10.8 0 15.4 7.6 15.4 20v30.8h-14.7V80.9c0-7.2-1.9-9.4-6.1-9.4-3.7 0-6 1.7-9.2 4.8v33.5h-14.7V60.2z"/><path id="XMLID_70_" class="st0" d="M1273.6 94.3h-20l-4 15.5h-15l20.5-65.2h17.6l20.5 65.2h-15.6l-4-15.5zm-3-11.5l-1.6-6c-1.8-6.5-3.5-14.2-5.3-21h-.4c-1.5 6.9-3.3 14.5-5.1 21l-1.6 6h14z"/><path id="XMLID_73_" class="st0" d="M1294 60.2h14.6l4.8 23c.8 4.9 1.4 9.7 2.2 14.7h.4c.9-5 1.7-10 2.9-14.7l5.5-23h12.7l5.6 23c1.2 4.9 2.1 9.7 3.1 14.7h.4c.9-5 1.4-9.8 2.3-14.7l4.7-23h13.6l-11.9 49.6h-17.2l-4.5-19.8c-1-4.6-1.8-9.2-2.7-14.5h-.4c-.9 5.3-1.6 9.9-2.5 14.5l-4.4 19.8h-16.8L1294 60.2z"/><path id="XMLID_75_" class="st0" d="M1400.8 77.9c-.3-4.4-2.5-7.2-7.8-7.2-4.2 0-8.4 1.7-13.2 4.5l-5.2-9.7c6.3-3.8 13.4-6.5 21.2-6.5 12.7 0 19.7 7.2 19.7 22.4v28.4h-12l-1.1-5.1h-.3c-4.2 3.7-8.9 6.3-14.5 6.3-9 0-14.7-6.6-14.7-15 0-10.4 8.3-16.1 27.9-18.1zm-8.2 21.7c3.4 0 5.6-1.6 8.2-4.2v-8.7c-10.5 1.4-13.9 4.4-13.9 8.2 0 3.2 2.2 4.7 5.7 4.7z"/><path id="XMLID_78_" class="st0" d="M1428.1 60.2h12l1 8.7h.4c3.6-6.7 9-9.9 14.1-9.9 2.8 0 4.5.4 5.9 1l-2.4 12.7c-1.8-.5-3.3-.8-5.4-.8-3.7 0-8.3 2.4-10.9 9.1v28.8h-14.7V60.2z"/><path id="XMLID_80_" class="st0" d="M1484.9 59c5.5 0 8.8 2 12.2 5.2l-.6-7.6V39.7h14.7v70.1h-12l-1-4.9h-.4c-3.5 3.5-8.4 6.1-13.2 6.1-12.3 0-20.3-9.8-20.3-26s10.1-26 20.6-26zm3.5 40c3.2 0 5.7-1.2 8.1-4.5V74.2c-2.6-2.4-5.5-3.2-8.2-3.2-4.7 0-8.9 4.4-8.9 13.8 0 9.8 3.3 14.2 9 14.2z"/><path id="XMLID_83_" class="st0" d="M1526.4 94.9c4.5 3.4 8.6 5.2 12.8 5.2 4.4 0 6.3-1.6 6.3-4.2 0-3.3-5-4.8-10.1-6.8-6-2.3-13.1-6.4-13.1-14.6 0-9.2 7.5-15.5 19-15.5 7.6 0 13.2 3.1 17.5 6.3l-6.6 8.8c-3.6-2.6-7-4.2-10.5-4.2-3.8 0-5.6 1.4-5.6 3.9 0 3.2 4.6 4.4 9.7 6.3 6.3 2.3 13.4 5.8 13.4 14.9 0 9-7.1 16-20.4 16-6.5 0-14-2.8-19-6.9l6.6-9.2z"/></g></g><g id="Dick"><path id="XMLID_4_" class="st0" d="M245.5 49.9c-1.5-2.7 1.5-3.8-3.2-8.5s-6.5-9.7-6.5-13c-23-24.5-68.7-37.5-78.7-21-1.2 2-2.1 3.7-2.7 5.7-25.8-2-50.5 1.2-54 11.1s2.4 17.4 7.9 18.9 10.8-2 22.6-8.5c4.9 2.3 8.1 8 9.8 11.7-22 16.1-42.7 33.7-77.8 2h-.2c-.6-3.5-2.5-6.9-6.8-7C47.7 41 36 35 33.5 33s-11.8-5.7-21-1.7S-3.8 49.8 2.2 63.8c2.2 5.1 7 7.3 12.1 8.1-.1.1-.2.2-.4.3 37.5 53.3 91.2 65.4 142.1 35.6 0 2.3-.8 5.3-3.7 8.3-7 7.2-20.7 22.7-21.3 37.7s26.8 27.7 43.7 15.7c5.9-4.2 9.2-10.5 11-17 11.1 8.8 29.5 10 41.6-2.9 15-16 2.5-31.8-10.3-47.5s-9.2-41.4-9.2-41.4l3.9-5.1s9.2-26.6-32.6-26c-1.9-9.7 3.1-13.3 7-14 4.2-.7 21.3 19 25.6 23s29.9 19.2 34.1 20.8c4.2 1.7 5.2 0 5.2 0s-4-6.9-5.5-9.5z"/></g></svg>